<svg width="6" height="6" viewBox="0 0 6 6" fill="none" xmlns="http://www.w3.org/2000/svg">
<rect x="2" y="2" width="2" height="2" rx="1" stroke="#FF0000"/>
<mask id="path-2-inside-1_1_273" fill="white">
<path d="M1 0L1.5 1.5L0 1L1 0Z"/>
</mask>
<path d="M1.5 1.5L1.18377 2.44868L3.08114 3.08114L2.44868 1.18377L1.5 1.5ZM1 0L1.94868 -0.316228L1.43702 -1.85123L0.292893 -0.707107L1 0ZM0 1L-0.707107 0.292893L-1.85123 1.43702L-0.316228 1.94868L0 1ZM2.44868 1.18377L1.94868 -0.316228L0.0513167 0.316228L0.551317 1.81623L2.44868 1.18377ZM0.292893 -0.707107L-0.707107 0.292893L0.707107 1.70711L1.70711 0.707107L0.292893 -0.707107ZM-0.316228 1.94868L1.18377 2.44868L1.81623 0.551317L0.316228 0.0513167L-0.316228 1.94868Z" fill="#FF0000" mask="url(#path-2-inside-1_1_273)"/>
<mask id="path-4-inside-2_1_273" fill="white">
<path d="M6 5L4.5 4.5L5 6L6 5Z"/>
</mask>
<path d="M4.5 4.5L4.81623 3.55132L2.91886 2.91886L3.55132 4.81623L4.5 4.5ZM6 5L6.70711 5.70711L7.85123 4.56298L6.31623 4.05132L6 5ZM5 6L4.05132 6.31623L4.56298 7.85123L5.70711 6.70711L5 6ZM4.18377 5.44868L5.68377 5.94868L6.31623 4.05132L4.81623 3.55132L4.18377 5.44868ZM5.29289 4.29289L4.29289 5.29289L5.70711 6.70711L6.70711 5.70711L5.29289 4.29289ZM5.94868 5.68377L5.44868 4.18377L3.55132 4.81623L4.05132 6.31623L5.94868 5.68377Z" fill="#FF0000" mask="url(#path-4-inside-2_1_273)"/>
</svg>
